<svg width="150" height="150" viewBox="0 0 150 150" fill="none" xmlns="http://www.w3.org/2000/svg">
<mask id="path-1-inside-1" fill="white">
<path fill-rule="evenodd" clip-rule="evenodd" d="M32.2461 75.2906C40.7931 60.6744 56.6538 50.8561 74.8076 50.8561C92.9615 50.8561 108.822 60.6744 117.369 75.2906C108.822 89.9068 92.9615 99.7252 74.8076 99.7252C56.6538 99.7252 40.7931 89.9068 32.2461 75.2906Z"/>
</mask>
<path d="M32.2461 75.2906L31.8145 75.0382L31.6669 75.2906L31.8145 75.543L32.2461 75.2906ZM117.369 75.2906L117.801 75.543L117.948 75.2906L117.801 75.0382L117.369 75.2906ZM32.6777 75.543C41.1387 61.0738 56.8386 51.3561 74.8076 51.3561V50.3561C56.4689 50.3561 40.4474 60.275 31.8145 75.0382L32.6777 75.543ZM74.8076 51.3561C92.7766 51.3561 108.477 61.0738 116.938 75.543L117.801 75.0382C109.168 60.275 93.1464 50.3561 74.8076 50.3561V51.3561ZM116.938 75.0382C108.477 89.5074 92.7766 99.2252 74.8076 99.2252V100.225C93.1464 100.225 109.168 90.3063 117.801 75.543L116.938 75.0382ZM74.8076 99.2252C56.8386 99.2252 41.1387 89.5074 32.6777 75.0382L31.8145 75.543C40.4474 90.3063 56.4689 100.225 74.8076 100.225V99.2252Z" fill="white" mask="url(#path-1-inside-1)"/>
<path fill-rule="evenodd" clip-rule="evenodd" d="M74.8065 57.9388C80.4495 61.4235 84.2402 67.8899 84.2402 75.2912C84.2402 82.6925 80.4495 89.1589 74.8065 92.6435C69.1634 89.1589 65.3727 82.6925 65.3727 75.2912C65.3727 67.8899 69.1634 61.4235 74.8065 57.9388Z" fill="white"/>
<path fill-rule="evenodd" clip-rule="evenodd" d="M74.8073 50.8662C74.9741 50.8662 75.1408 50.867 75.3073 50.8687V0.751343H74.8073V50.8662ZM77.9625 50.9656C78.1293 50.9762 78.2959 50.9875 78.4622 50.9997L83.6435 10.8993L83.1476 10.8352L77.9625 50.9656ZM81.2409 51.2825C81.4077 51.3042 81.5742 51.3268 81.7404 51.3502L94.583 3.4211L94.1 3.29169L81.2409 51.2825ZM84.4802 51.8154C84.6467 51.8486 84.813 51.8826 84.9789 51.9174L100.011 15.3785L99.5485 15.1883L84.4802 51.8154ZM87.8981 52.6243C88.0641 52.6699 88.2297 52.7164 88.395 52.7637L112.514 10.9884L112.081 10.7384L87.8981 52.6243ZM91.3149 53.6997C91.4796 53.7583 91.6439 53.8177 91.8079 53.878L114.665 23.9416L114.267 23.6382L91.3149 53.6997ZM94.949 55.158C95.1114 55.2309 95.2734 55.3046 95.4349 55.3792L127.874 22.9398L127.521 22.5862L94.949 55.158ZM98.5875 56.9747C98.7463 57.0624 98.9044 57.1508 99.0621 57.2402L126.598 36.0059L126.292 35.6099L98.5875 56.9747ZM101.984 59.0328C102.138 59.1354 102.293 59.2388 102.446 59.3431L139.368 38.0261L139.118 37.5931L101.984 59.0328ZM105.445 61.5486C105.594 61.6667 105.742 61.7857 105.889 61.9054L134.597 49.9333L134.404 49.4718L105.445 61.5486ZM109.765 65.4161C109.899 65.5519 110.034 65.6885 110.167 65.8259L146.815 56.006L146.686 55.523L109.765 65.4161ZM113.489 69.6171C113.609 69.7686 113.728 69.9208 113.845 70.0738L139.245 66.6676L139.179 66.1721L113.489 69.6171ZM117.369 75.3008C117.271 75.4681 117.172 75.6348 117.072 75.8008H149.357V75.3008L117.369 75.3008ZM114.316 79.9082C114.201 80.062 114.085 80.2151 113.969 80.3675L139.287 83.6389L139.351 83.143L114.316 79.9082ZM110.562 84.3639C110.431 84.5019 110.299 84.6392 110.167 84.7757L146.815 94.5956L146.945 94.1126L110.562 84.3639ZM106.375 88.2951C106.23 88.4162 106.085 88.5365 105.938 88.656L134.74 100.505L134.93 100.043L106.375 88.2951ZM102.903 90.9448C102.751 91.0502 102.599 91.1548 102.446 91.2585L139.368 112.576L139.618 112.143L102.903 90.9448ZM99.1874 93.2901C99.0299 93.38 98.8718 93.469 98.7132 93.5572L126.483 114.76L126.787 114.362L99.1874 93.2901ZM95.4342 95.2227C95.2727 95.2973 95.1107 95.371 94.9482 95.4438L127.519 128.015L127.873 127.662L95.4342 95.2227ZM91.9241 96.6806C91.7602 96.7414 91.5959 96.8012 91.4312 96.8603L114.51 126.788L114.906 126.483L91.9241 96.6806ZM88.3956 97.8376C88.2303 97.885 88.0647 97.9314 87.8987 97.9771L112.081 139.862L112.514 139.612L88.3956 97.8376ZM85.0967 98.6592C84.9308 98.6945 84.7646 98.7289 84.598 98.7625L99.8393 135.309L100.301 135.117L85.0967 98.6592ZM81.7395 99.2514C81.5733 99.2748 81.4068 99.2974 81.24 99.3192L94.0989 147.309L94.5819 147.18L81.7395 99.2514ZM78.5752 99.5934C78.4088 99.606 78.2422 99.6177 78.0754 99.6286L83.4545 139.741L83.9501 139.675L78.5752 99.5934ZM75.3073 99.7328C75.1408 99.7345 74.9741 99.7353 74.8073 99.7353V149.85H75.3073V99.7328ZM72.1742 99.6662C72.0072 99.6574 71.8404 99.6478 71.6738 99.6373L66.4869 139.782L66.9828 139.846L72.1742 99.6662ZM68.8705 99.3813C68.7033 99.3612 68.5363 99.3403 68.3697 99.3186L55.5104 147.31L55.9933 147.44L68.8705 99.3813ZM65.6557 98.887C65.4884 98.8556 65.3215 98.8233 65.1548 98.7902L50.0818 135.429L50.5442 135.619L65.6557 98.887ZM62.2136 98.1112C62.0467 98.0672 61.8802 98.0223 61.7139 97.9766L37.5315 139.862L37.9645 140.112L62.2136 98.1112ZM58.8199 97.0835C58.6539 97.0266 58.4883 96.9689 58.3231 96.9102L35.3654 126.979L35.7629 127.282L58.8199 97.0835ZM55.1544 95.6597C54.9905 95.5883 54.8271 95.516 54.6641 95.4429L22.0919 128.015L22.4455 128.369L55.1544 95.6597ZM51.5254 93.8984C51.3648 93.8122 51.2049 93.7251 51.0454 93.6371L23.3327 115.008L23.638 115.404L51.5254 93.8984ZM47.1676 91.2582C47.0148 91.1544 46.8626 91.0499 46.711 90.9445L9.99491 112.143L10.2449 112.576L47.1676 91.2582ZM43.0302 88.1197C42.8875 87.9991 42.7455 87.8778 42.6042 87.7556L14.403 99.5165L14.5954 99.978L43.0302 88.1197ZM39.4469 84.7752C39.3145 84.6387 39.1828 84.5015 39.0519 84.3635L2.66745 94.1126L2.79686 94.5956L39.4469 84.7752ZM35.7801 80.5424C35.6629 80.3905 35.5465 80.2379 35.4311 80.0847L10.3141 83.4529L10.3806 83.9484L35.7801 80.5424ZM32.542 75.8008C32.4422 75.6347 32.3434 75.4681 32.2456 75.3008L0.257812 75.3008V75.8008H32.542ZM35.6362 70.2465C35.7535 70.093 35.8717 69.9402 35.9907 69.7882L10.405 66.4823L10.3409 66.9782L35.6362 70.2465ZM39.4469 65.8263L2.79686 56.006L2.92627 55.523L39.8493 65.4165C39.7144 65.5523 39.5802 65.6889 39.4469 65.8263ZM42.7973 62.6799L14.4994 51.0382L14.6896 50.5758L43.2274 62.3162C43.0833 62.4366 42.9399 62.5579 42.7973 62.6799ZM72.051 50.942C71.884 50.9512 71.7172 50.9613 71.5506 50.9721L66.1737 10.8762L66.6693 10.8097L72.051 50.942ZM68.8696 51.2203L55.9923 3.16149L55.5093 3.2909L68.3688 51.2831C68.5355 51.2613 68.7024 51.2404 68.8696 51.2203ZM65.5291 51.7385L50.2561 15.1156L49.7947 15.308L65.0283 51.8366C65.195 51.8031 65.3619 51.7703 65.5291 51.7385ZM62.2142 52.4902L37.9645 10.4884L37.5315 10.7384L61.7146 52.6247C61.8808 52.579 62.0473 52.5342 62.2142 52.4902ZM58.677 53.5672L35.5084 23.5233L35.1125 23.8286L58.1805 53.7422C58.3456 53.683 58.5111 53.6247 58.677 53.5672ZM55.1537 54.9422L22.4442 22.2327L22.0906 22.5862L54.6633 55.1589C54.8263 55.0858 54.9898 55.0136 55.1537 54.9422ZM51.3746 56.7845L23.446 35.4606L23.1426 35.858L50.8953 57.0476C51.0545 56.959 51.2143 56.8713 51.3746 56.7845ZM47.6302 59.0331L10.4949 37.5931L10.2449 38.0261L47.1676 59.3434C47.3212 59.2391 47.4754 59.1357 47.6302 59.0331Z" fill="white"/>
</svg>
