<svg width="261" height="272" viewBox="0 0 261 272" fill="none" xmlns="http://www.w3.org/2000/svg">
<path d="M22.2011 168.203L23.3248 170.623L8.36567 177.571L9.41027 179.82L24.3694 172.872L28.4528 181.663L13.4937 188.611L14.5383 190.86L31.4057 183.026L24.2834 167.692L28.7132 165.634L27.6686 163.385L23.2047 165.459C22.0121 166.013 21.6471 167.011 22.2011 168.203Z" fill="white"/>
<path d="M19.3497 145.55L1.20364 149.625L2.3151 154.574L21.7286 159.571L21.8932 160.304L20.3446 160.267L4.39805 163.849L4.94143 166.268L23.0875 162.193L21.976 157.244L2.56253 152.246L2.39787 151.513L3.94654 151.55L19.8931 147.969L19.3497 145.55Z" fill="white"/>
<path d="M19.2122 125.242L9.59786 133.828L2.7666 128.886L2.72492 125.843L0.621094 125.872L0.660206 128.727C0.675645 129.854 1.17381 130.561 2.04663 131.188L8.95353 136.166L8.97412 137.669L0.784234 137.781L0.8182 140.261L19.4145 140.006L19.3805 137.526L11.1906 137.639L11.1742 136.436C11.1701 136.136 11.1284 135.836 11.0496 135.574L19.2534 128.247L19.2122 125.242Z" fill="white"/>
<path d="M5.02534 100.01L2.53968 112.694C12.9371 114.731 18.7475 115.755 18.0394 119.368L20.1041 119.773C21.1952 114.206 15.4347 112.732 5.08133 110.665L6.61319 102.848L22.7993 106.02L23.2762 103.587L5.02534 100.01Z" fill="white"/>
<path d="M91.793 7.80908L93.225 24.2824L93.7365 25.2868L93.0668 25.6278L92.5554 24.6234L80.0413 13.7935L77.6642 15.004L93.2686 27.9283L95.5533 32.4147L89.3563 35.1488L90.3111 37.0237L96.5415 34.2726C98.0823 33.5723 98.3768 32.4947 97.78 31.3229L95.4783 26.803L94.1701 6.59856L91.793 7.80908Z" fill="white"/>
<path d="M111.783 2.80419L113.929 10.7478L103.482 13.5692L101.337 5.6256L98.9429 6.27217L103.792 24.2269L106.186 23.5803L104.031 15.6004L114.477 12.779L116.633 20.7589L119.027 20.1123L114.177 2.15762L111.783 2.80419Z" fill="white"/>
<path d="M142.779 18.7343L141.852 0.159424L136.786 0.412341L128.557 18.692L127.807 18.7295L128.107 17.2097L127.292 0.886326L124.815 1.00997L125.743 19.5849L130.809 19.332L139.037 1.05231L139.788 1.01484L139.487 2.53458L140.302 18.858L142.779 18.7343Z" fill="white"/>
<path d="M162.814 22.053L155.989 11.1175L162.021 5.22702L165.027 5.70388L165.357 3.62584L162.536 3.17842C161.423 3.00181 160.642 3.37236 159.875 4.12575L153.794 10.0846L152.31 9.84911L153.593 1.75963L151.144 1.37108L148.23 19.7394L150.679 20.1279L151.963 12.0385L153.15 12.2269C153.447 12.274 153.75 12.2839 154.021 12.2509L159.845 21.5821L162.814 22.053Z" fill="white"/>
<path d="M167.81 18.6614C167.126 20.4913 166.566 24.1329 171.564 26.0018C175.646 27.5284 178.481 25.7405 180.123 23.3864L180.827 23.6496L179.817 25.2776L179.422 26.3333C178.962 27.565 179.402 28.5321 180.634 28.9927L183.59 30.0982L184.327 28.1275L181.758 27.1668L184.732 19.2135C186.391 14.7794 185.028 10.3788 180.136 8.54942C175.174 6.69374 171.39 9.08934 170.1 12.5381L172.423 13.4067C173.779 9.782 176.795 9.54623 179.399 10.5201C182.531 11.6915 183.752 14.1134 182.633 17.7466L175.134 15.7042C171.166 14.6215 168.824 15.9517 167.81 18.6614ZM170.212 19.3189C170.91 17.4537 172.347 17.149 174.749 17.8065L181.896 19.7174C180.436 23.6236 176.664 25.663 172.512 24.11C170.26 23.2677 169.383 21.5359 170.212 19.3189Z" fill="white"/>
<path d="M211.283 25.2932L200.367 18.3721C194.693 27.3201 191.63 32.3622 188.52 30.3905L187.393 32.1674C192.185 35.2055 195.649 30.3731 201.335 21.4769L208.062 25.7422L199.229 39.6721L201.323 41L211.283 25.2932Z" fill="white"/>
<path d="M220.085 40.9576L217.152 38.0999L221.058 34.0899L219.282 32.3596L206.304 45.6812L211.014 50.2693C214.19 53.363 217.607 54.6467 221.121 51.0405C224.634 47.4342 223.261 44.0513 220.085 40.9576ZM209.549 45.9045L215.684 39.607L218.348 42.2025C220.689 44.4834 222.123 46.4574 219.344 49.3101C216.565 52.1628 214.555 50.781 212.213 48.5L209.549 45.9045Z" fill="white"/>
<path d="M243.386 61.7842L236.554 66.3706L230.523 57.3868L237.354 52.8004L235.972 50.7416L220.531 61.1082L221.913 63.167L228.776 58.5596L234.807 67.5434L227.945 72.1508L229.327 74.2096L244.768 63.8429L243.386 61.7842Z" fill="white"/>
<path d="M246.522 81.7861L245.064 77.9591L250.296 75.9661L249.413 73.6488L232.033 80.2697L234.374 86.414C235.952 90.557 238.512 93.1602 243.217 91.3679C247.922 89.5756 248.1 85.9291 246.522 81.7861ZM238.052 96.0693L238.935 98.3866L256.315 91.7658L255.432 89.4485L238.052 96.0693ZM234.882 81.8379L243.098 78.7081L244.422 82.184C245.586 85.2386 246.056 87.6328 242.334 89.0506C238.612 90.4684 237.37 88.3685 236.206 85.3139L234.882 81.8379Z" fill="white"/>
<path d="M239.454 103.431L239.892 106.328L248.507 111.03L241.667 118.068L242.105 120.965L249.902 112.719L250.645 112.606L260.494 118.185L260.056 115.287L251.479 110.58L258.281 103.548L257.843 100.65L250.083 108.891L249.34 109.004L239.454 103.431Z" fill="white"/>
<path d="M223.363 228.024L231.656 218.111C223.53 211.312 218.933 207.614 221.296 204.79L219.682 203.44C216.042 207.791 220.378 211.859 228.452 218.663L223.341 224.772L210.69 214.189L209.099 216.091L223.363 228.024Z" fill="white"/>
<path d="M210.307 227.454C206.984 223.233 202.046 221.334 196.909 225.378C192.333 228.98 193.121 233.382 194.343 236.149L196.291 234.615C194.953 231.7 195.613 229.076 198.211 227.031C202.019 224.033 205.416 225.614 207.94 228.457L196.309 237.614L196.96 238.44C200.516 242.957 205.159 243.51 209.203 240.326C213.248 237.141 214.026 232.177 210.307 227.454ZM209.242 230.11C211.287 232.708 210.824 236.371 207.902 238.672C204.891 241.043 201.604 240.331 199.559 237.733L209.242 230.11Z" fill="white"/>
<path d="M173.402 239.133L185.329 244.023L183.873 252.328L181.154 253.696L182.101 255.575L184.651 254.291C185.658 253.785 186.076 253.027 186.258 251.968L187.713 243.58L189.056 242.904L192.739 250.22L194.954 249.105L186.591 232.493L184.376 233.608L188.059 240.924L186.985 241.465C186.716 241.6 186.465 241.768 186.264 241.954L176.087 237.781L173.402 239.133Z" fill="white"/>
<path d="M151.165 247.385L153.744 246.701L157.971 262.645L160.368 262.009L156.141 246.066L165.51 243.582L169.738 259.525L172.135 258.889L167.368 240.912L151.026 245.245L149.774 240.524L147.377 241.16L148.638 245.917C148.975 247.188 149.894 247.722 151.165 247.385Z" fill="white"/>
<path d="M128.352 246.238L129.193 264.817L134.26 264.587L142.573 246.346L143.324 246.312L143.017 247.83L143.756 264.157L146.233 264.045L145.392 245.466L140.325 245.695L132.012 263.937L131.261 263.971L131.569 262.452L130.829 246.125L128.352 246.238Z" fill="white"/>
<path d="M104.343 269.934L106.418 270.288C106.884 267.547 108.081 266.34 110.636 266.775C113.192 267.21 113.922 268.745 113.455 271.486L115.529 271.839C116.172 268.061 114.323 265.269 110.989 264.701C107.656 264.134 104.987 266.157 104.343 269.934ZM106.138 242.38L103.017 260.714L108.017 261.565L120.013 245.504L120.753 245.63L120.131 247.049L117.388 263.161L119.832 263.577L122.954 245.243L117.953 244.391L105.958 260.453L105.217 260.326L105.84 258.908L108.583 242.796L106.138 242.38Z" fill="white"/>
<path d="M244.505 175.025C241.329 183.279 237.33 190.974 232.637 198.051L230.859 196.955C235.486 189.986 239.428 182.407 242.557 174.276C248.311 159.32 250.77 143.906 250.289 128.837L252.375 128.773C252.865 144.112 250.362 159.801 244.505 175.025Z" fill="white"/>
<path d="M36.7522 196.377C49.3418 215.576 67.7138 231.237 90.5637 240.423L89.8141 242.371C66.5408 233.022 47.829 217.076 35.008 197.523L36.7522 196.377Z" fill="white"/>
<path d="M25.9801 89.2913C35.3156 65.9387 51.4071 47.2476 71.1323 34.6054L69.7741 32.9969C49.7929 45.8682 33.4969 64.849 24.0318 88.5417L25.9801 89.2913Z" fill="white"/>
</svg>
