<svg width="175" height="176" viewBox="0 0 175 176" fill="none" xmlns="http://www.w3.org/2000/svg">
<path d="M35.2837 104.662L35.8221 105.821L28.6554 109.15L29.1559 110.227L36.3225 106.899L38.2788 111.11L31.1122 114.439L31.6126 115.517L39.6935 111.763L36.2813 104.417L38.4036 103.431L37.9031 102.354L35.7646 103.347C35.1932 103.613 35.0183 104.091 35.2837 104.662Z" fill="white"/>
<path d="M33.9178 93.809L25.2243 95.7614L25.7568 98.1324L35.0575 100.527L35.1364 100.878L34.3944 100.86L26.7547 102.576L27.015 103.735L35.7085 101.782L35.176 99.4115L25.8754 97.0173L25.7965 96.6661L26.5384 96.6839L34.1781 94.9682L33.9178 93.809Z" fill="white"/>
<path d="M33.8519 84.0799L29.2458 88.1934L25.9731 85.826L25.9531 84.3682L24.9452 84.382L24.9639 85.7498C24.9713 86.2898 25.21 86.6286 25.6281 86.9289L28.9371 89.3138L28.947 90.0337L25.0234 90.0874L25.0396 91.2753L33.9488 91.1533L33.9325 89.9654L30.0089 90.0191L30.001 89.4432C29.999 89.2992 29.9791 89.1555 29.9413 89.03L33.8716 85.5198L33.8519 84.0799Z" fill="white"/>
<path d="M27.0553 71.9919L25.8645 78.0683C30.8457 79.0445 33.6294 79.535 33.2901 81.2661L34.2793 81.4599C34.802 78.7927 32.0423 78.0867 27.0822 77.0963L27.816 73.3516L35.5705 74.8713L35.799 73.7054L27.0553 71.9919Z" fill="white"/>
<path d="M68.6234 27.82L69.3095 35.712L69.5545 36.1932L69.2337 36.3566L68.9887 35.8754L62.9934 30.687L61.8546 31.2669L69.3304 37.4587L70.4249 39.6081L67.4561 40.918L67.9135 41.8162L70.8984 40.4982C71.6365 40.1627 71.7776 39.6464 71.4917 39.085L70.389 36.9196L69.7623 27.24L68.6234 27.82Z" fill="white"/>
<path d="M78.2008 25.4221L79.2287 29.2277L74.224 30.5794L73.1961 26.7738L72.0492 27.0835L74.3724 35.6853L75.5193 35.3756L74.4868 31.5525L79.4915 30.2009L80.524 34.0239L81.6709 33.7141L79.3477 25.1123L78.2008 25.4221Z" fill="white"/>
<path d="M93.0504 33.054L92.6061 24.1551L90.1791 24.2763L86.2369 33.0337L85.8773 33.0517L86.0212 32.3236L85.6308 24.5034L84.4443 24.5626L84.8885 33.4615L87.3155 33.3403L91.2578 24.5829L91.6173 24.5649L91.4734 25.293L91.8639 33.1133L93.0504 33.054Z" fill="white"/>
<path d="M102.648 34.6439L99.3789 29.4049L102.269 26.5828L103.709 26.8113L103.867 25.8157L102.516 25.6014C101.982 25.5168 101.608 25.6943 101.241 26.0552L98.3275 28.91L97.6164 28.7972L98.2312 24.9217L97.0579 24.7355L95.6618 33.5355L96.8351 33.7216L97.45 29.8461L98.0189 29.9363C98.1611 29.9589 98.3061 29.9637 98.4362 29.9479L101.226 34.4183L102.648 34.6439Z" fill="white"/>
<path d="M105.043 33.019C104.715 33.8957 104.447 35.6403 106.841 36.5356C108.797 37.267 110.155 36.4105 110.942 35.2827L111.279 35.4088L110.795 36.1887L110.606 36.6945C110.385 37.2846 110.596 37.7479 111.186 37.9685L112.602 38.4982L112.956 37.554L111.725 37.0938L113.15 33.2835C113.944 31.1592 113.291 29.0509 110.948 28.1745C108.571 27.2855 106.758 28.4332 106.14 30.0854L107.253 30.5016C107.902 28.765 109.347 28.6521 110.595 29.1187C112.095 29.6798 112.68 30.8401 112.144 32.5807L108.551 31.6022C106.651 31.0836 105.528 31.7208 105.043 33.019ZM106.193 33.334C106.528 32.4404 107.216 32.2944 108.367 32.6094L111.791 33.5249C111.091 35.3963 109.285 36.3733 107.295 35.6293C106.216 35.2258 105.796 34.3961 106.193 33.334Z" fill="white"/>
<path d="M125.869 36.1964L120.639 32.8806C117.921 37.1675 116.454 39.583 114.964 38.6384L114.424 39.4897C116.719 40.9452 118.379 38.6301 121.103 34.3681L124.326 36.4115L120.094 43.085L121.098 43.7212L125.869 36.1964Z" fill="white"/>
<path d="M130.087 43.7009L128.682 42.3318L130.553 40.4107L129.702 39.5817L123.485 45.9639L125.741 48.162C127.262 49.6441 128.9 50.2591 130.583 48.5314C132.266 46.8037 131.608 45.183 130.087 43.7009ZM125.039 46.0709L127.978 43.0539L129.255 44.2973C130.376 45.3901 131.063 46.3358 129.732 47.7025C128.401 49.0692 127.437 48.4071 126.315 47.3144L125.039 46.0709Z" fill="white"/>
<path d="M141.249 53.6785L137.976 55.8758L135.086 51.5718L138.359 49.3745L137.697 48.3882L130.299 53.3547L130.962 54.341L134.249 52.1337L137.139 56.4377L133.851 58.645L134.513 59.6313L141.911 54.6648L141.249 53.6785Z" fill="white"/>
<path d="M142.752 63.261L142.053 61.4275L144.56 60.4727L144.137 59.3626L135.81 62.5345L136.932 65.4781C137.688 67.463 138.914 68.7101 141.168 67.8515C143.422 66.9928 143.508 65.2458 142.752 63.261ZM138.694 70.1038L139.117 71.214L147.443 68.0421L147.02 66.9319L138.694 70.1038ZM137.175 63.2858L141.111 61.7864L141.746 63.4516C142.303 64.915 142.528 66.0621 140.745 66.7413C138.962 67.4205 138.367 66.4145 137.81 64.9511L137.175 63.2858Z" fill="white"/>
<path d="M139.366 73.6307L139.576 75.019L143.703 77.2712L140.426 80.643L140.636 82.0312L144.371 78.0804L144.727 78.0265L149.446 80.6991L149.236 79.3109L145.126 77.0559L148.385 73.6868L148.175 72.2986L144.458 76.2468L144.102 76.3006L139.366 73.6307Z" fill="white"/>
<path d="M131.657 133.321L135.63 128.572C131.736 125.315 129.534 123.543 130.666 122.19L129.893 121.543C128.149 123.628 130.226 125.577 134.094 128.836L131.646 131.763L125.585 126.693L124.823 127.604L131.657 133.321Z" fill="white"/>
<path d="M125.402 133.048C123.81 131.026 121.444 130.116 118.983 132.053C116.791 133.779 117.168 135.888 117.754 137.214L118.687 136.479C118.046 135.082 118.362 133.825 119.607 132.845C121.431 131.409 123.059 132.167 124.268 133.528L118.696 137.915L119.007 138.311C120.711 140.475 122.935 140.74 124.873 139.215C126.811 137.689 127.183 135.311 125.402 133.048ZM124.891 134.32C125.871 135.565 125.65 137.32 124.249 138.423C122.807 139.558 121.232 139.217 120.253 137.973L124.891 134.32Z" fill="white"/>
<path d="M107.721 138.643L113.435 140.986L112.738 144.965L111.435 145.62L111.889 146.521L113.111 145.905C113.593 145.663 113.793 145.3 113.88 144.792L114.578 140.774L115.221 140.45L116.985 143.955L118.046 143.42L114.04 135.462L112.979 135.996L114.743 139.501L114.229 139.76C114.1 139.825 113.98 139.906 113.883 139.995L109.008 137.996L107.721 138.643Z" fill="white"/>
<path d="M97.0678 142.597L98.3031 142.269L100.328 149.907L101.477 149.603L99.4515 141.965L103.94 140.775L105.966 148.413L107.114 148.108L104.83 139.496L97.0009 141.572L96.4011 139.31L95.2528 139.614L95.8572 141.894C96.0186 142.502 96.4589 142.758 97.0678 142.597Z" fill="white"/>
<path d="M86.1383 142.047L86.5415 150.948L88.969 150.838L92.9516 142.099L93.3112 142.082L93.164 142.81L93.5184 150.632L94.7051 150.578L94.3019 141.677L91.8744 141.787L87.8918 150.526L87.5322 150.543L87.6794 149.815L87.325 141.993L86.1383 142.047Z" fill="white"/>
<path d="M74.6362 153.4L75.6299 153.569C75.8534 152.256 76.4265 151.678 77.6509 151.886C78.8753 152.095 79.2249 152.83 79.0013 154.143L79.995 154.312C80.3032 152.502 79.4171 151.164 77.8201 150.893C76.2231 150.621 74.9443 151.59 74.6362 153.4ZM75.4959 140.199L74.0005 148.982L76.3961 149.39L82.143 141.696L82.4979 141.756L82.1996 142.436L80.8855 150.155L82.0566 150.354L83.552 141.57L81.1565 141.162L75.4095 148.857L75.0546 148.797L75.3529 148.117L76.6671 140.398L75.4959 140.199Z" fill="white"/>
<path fill-rule="evenodd" clip-rule="evenodd" d="M141.786 107.93C140.265 111.885 138.349 115.571 136.1 118.962L135.248 118.436C137.465 115.098 139.354 111.467 140.853 107.571C143.61 100.406 144.788 93.0219 144.557 85.8022L145.557 85.7716C145.791 93.1205 144.592 100.637 141.786 107.93ZM42.2553 118.159C48.2868 127.358 57.0885 134.861 68.0355 139.261L67.6763 140.195C56.5265 135.716 47.562 128.076 41.4197 118.709L42.2553 118.159ZM37.0946 66.8567C41.567 55.6689 49.2762 46.7143 58.7262 40.6577L58.0756 39.887C48.5029 46.0535 40.6958 55.1468 36.1612 66.4976L37.0946 66.8567Z" fill="white"/>
</svg>
