<svg width="636" height="628" viewBox="0 0 636 628" fill="none" xmlns="http://www.w3.org/2000/svg">
<path d="M319.202 314.252H319.3C689.991 431.359 715.702 420.289 319.202 314.252Z" fill="#C6983C"/>
<path d="M319.202 314.157C716.096 418.931 700.039 395.141 319.202 314.157V314.157Z" fill="#C6983C"/>
<path d="M319.388 314.157C701.9 393.782 766.227 384.266 319.388 314.157V314.157Z" fill="#C6983C"/>
<path d="M318.999 314.835C640.928 629.546 608.715 572.45 318.999 314.835V314.835Z" fill="#C6983C"/>
<path d="M320.575 315.807C320.083 315.419 319.492 315.031 318.999 314.642C637.973 568.663 633.737 540.698 320.575 315.807Z" fill="#C6983C"/>
<path d="M318.905 314.835C580.349 600.415 639.849 630.614 318.905 314.835V314.835Z" fill="#C6983C"/>
<path d="M318.999 314.739C608.617 570.217 637.579 570.217 318.999 314.739V314.739Z" fill="#C6983C"/>
<path d="M330.723 329.499C326.685 324.546 322.843 319.788 318.804 315.03C544.39 620.322 576.11 629.838 330.723 329.499Z" fill="#C6983C"/>
<path d="M318.804 314.835C577.982 628.963 577.982 600.415 318.804 314.835V314.835Z" fill="#C6983C"/>
<path d="M319.103 314.545C655.414 505.061 684.376 498.652 319.103 314.545V314.545Z" fill="#C6983C"/>
<path d="M319.103 314.642C635.91 540.212 698.66 559.244 319.103 314.642V314.642Z" fill="#C6983C"/>
<path d="M319.202 314.35C675.904 469.617 741.906 474.375 319.202 314.35V314.35Z" fill="#C6983C"/>
<path d="M321.467 315.419C320.679 315.128 319.99 314.739 319.202 314.448C684.278 497.002 673.836 470.59 321.467 315.419Z" fill="#C6983C"/>
<path d="M319.297 314.35C742.395 472.919 690.973 433.301 319.297 314.35V314.35Z" fill="#C6983C"/>
<path d="M319.202 314.642C325.605 318.72 331.712 322.702 338.313 326.877C698.069 556.331 650.292 503.993 319.202 314.642Z" fill="#C6983C"/>
<path d="M318.211 318.818C341.163 718.979 358.599 694.898 318.211 317.167V318.818Z" fill="#C6983C"/>
<path d="M318.211 312.118C318.802 308.331 319.393 304.641 319.984 300.757C319.393 304.35 318.802 308.137 318.211 311.827V312.118Z" fill="#C6983C"/>
<path d="M318.211 316.391V316.973C318.802 322.702 319.491 328.237 320.082 334.063C319.491 328.043 318.9 322.314 318.211 316.391Z" fill="#C6983C"/>
<path d="M318.211 307.65V308.621C318.506 302.407 318.802 296.483 319.196 290.074C318.9 296.095 318.605 301.727 318.211 307.65Z" fill="#C6983C"/>
<path d="M318.211 311.728C319.196 305.319 320.279 299.105 321.264 292.502C320.772 295.318 320.378 297.94 319.984 300.659C382.439 -84.8402 359.979 -64.2543 318.211 311.34V311.728Z" fill="#C6983C"/>
<path d="M318.211 310.563C358.698 -68.9155 342.838 -132.129 318.211 308.815V310.563Z" fill="#C6983C"/>
<path d="M318.211 312.507C319.196 308.04 320.082 303.671 321.067 299.107C320.181 303.379 319.196 307.846 318.211 312.216V312.507Z" fill="#C6983C"/>
<path d="M318.211 310.758V311.34C318.802 305.417 319.491 299.688 320.082 293.667C319.491 299.494 318.9 305.029 318.211 310.758Z" fill="#C6983C"/>
<path d="M318.211 312.215C319.491 306.097 320.772 300.174 322.151 293.959C321.757 295.707 321.461 297.455 321.067 299.203C398.496 -61.9229 383.621 -80.3725 318.211 312.215Z" fill="#C6983C"/>
<path d="M321.764 337.364C320.582 329.887 319.498 322.799 318.316 315.613V316.001C318.414 316.487 318.513 316.972 318.513 317.361C319.597 323.964 320.68 330.664 321.665 337.073C321.665 337.17 321.665 337.267 321.764 337.364Z" fill="#C6983C"/>
<path d="M318.211 307.262C339.982 -110.572 320.871 -75.129 318.211 256.769V307.262Z" fill="#C6983C"/>
<path d="M318.513 317.361C318.414 316.876 318.316 316.39 318.316 316.002V316.39C360.084 691.111 388.75 753.742 321.764 337.17C320.582 330.276 319.498 323.964 318.513 317.361Z" fill="#C6983C"/>
<path d="M322.151 333.772C320.969 328.432 319.885 323.479 318.802 318.236C318.605 317.362 318.408 316.391 318.211 315.42V315.517C390.024 749.664 398.89 692.47 321.461 330.374C321.757 331.539 321.954 332.607 322.151 333.772Z" fill="#C6983C"/>
<path d="M319.388 314.059C766.325 382.905 706.924 355.91 319.388 314.059V314.059Z" fill="#C6983C"/>
<path d="M318.211 315.127V315.419C318.408 316.39 318.605 317.264 318.802 318.235C319.688 322.216 320.575 326.488 321.461 330.373C320.378 325.226 319.294 320.274 318.211 315.127Z" fill="#C6983C"/>
<path d="M318.71 315.03C566.855 689.168 547.547 627.313 318.71 315.03V315.03Z" fill="#C6983C"/>
<path d="M318.999 335.421C318.703 330.275 318.506 325.517 318.211 320.468V372.903C320.772 694.605 338.011 698.683 318.703 330.275C318.9 331.926 318.9 333.576 318.999 335.421Z" fill="#C6983C"/>
<path d="M318.211 320.274C318.407 323.478 318.604 326.974 318.702 330.178C318.505 326.488 318.309 323.09 318.211 319.497V320.274Z" fill="#C6983C"/>
<path d="M319.103 312.991C634.924 86.1582 671.866 32.2661 319.103 312.991V312.991Z" fill="#C6983C"/>
<path d="M324.325 294.54C324.226 294.831 324.128 295.026 324.029 295.317C439.187 -54.8364 435.739 -110.865 318.316 312.504C318.611 311.63 318.907 310.659 319.203 309.785C320.976 304.736 322.552 299.784 324.325 294.54Z" fill="#C6983C"/>
<path d="M323.728 299.007C465.483 -64.8373 438.886 -46.3877 318.409 312.602C320.871 306.29 323.236 300.27 325.797 293.764C325.107 295.512 324.418 297.162 323.728 299.007Z" fill="#C6983C"/>
<path d="M321.56 300.367C435.535 -117.175 399.973 -59.1077 318.211 312.505C320.181 305.223 322.052 298.231 324.121 290.754C323.333 294.056 322.446 297.066 321.56 300.367Z" fill="#C6983C"/>
<path d="M324.711 298.814C476.908 -38.4243 465.481 -59.5927 318.505 312.603C321.165 306.874 323.628 301.242 326.386 295.221C325.795 296.484 325.302 297.552 324.711 298.814Z" fill="#C6983C"/>
<path d="M324.222 305.32C546.656 2.94125 541.731 -22.4997 318.804 312.603C322.547 307.553 326.192 302.601 330.034 297.357C327.965 300.076 326.192 302.601 324.222 305.32Z" fill="#C6983C"/>
<path d="M327.575 307.652C663.197 93.0541 632.068 90.2381 319.103 312.992C324.817 309.302 330.333 305.807 336.244 301.923C333.289 303.962 330.53 305.807 327.575 307.652Z" fill="#C6983C"/>
<path d="M323.525 302.988C523.499 -83.5784 477.889 -35.4153 318.599 312.505C322.047 305.804 325.397 299.396 328.943 292.501C327.071 296.094 325.397 299.396 323.525 302.988Z" fill="#C6983C"/>
<path d="M324.116 304.348C541.723 -25.8994 511.579 -15.3152 318.599 312.699C322.343 307.067 325.889 301.532 329.731 295.706C327.859 298.716 326.086 301.435 324.116 304.348Z" fill="#C6983C"/>
<path d="M318.316 315.226C399.488 684.508 424.017 706.065 321.961 328.723C322.552 330.762 323.044 332.704 323.537 334.743C321.764 328.043 319.991 321.731 318.316 315.226Z" fill="#C6983C"/>
<path d="M318.316 315.226C424.509 700.821 438.497 679.847 323.044 329.597C323.438 330.859 323.832 332.024 324.226 333.19C322.256 327.072 320.286 321.246 318.316 315.226Z" fill="#C6983C"/>
<path d="M318.599 315.03C505.472 675.088 511.875 646.54 318.599 315.03V315.03Z" fill="#C6983C"/>
<path d="M332.693 315.419C706.241 353.871 724.958 336.587 319.493 314.059C325.797 314.739 332.004 315.321 338.505 316.001C336.535 315.71 334.663 315.613 332.693 315.419Z" fill="#C6983C"/>
<path d="M319.297 313.866C710.478 312.992 771.554 290.852 319.297 313.866V313.866Z" fill="#C6983C"/>
<path d="M334.271 314.739C729.491 334.84 704.075 314.739 319.297 313.962C326.094 314.351 332.695 314.642 339.787 315.031C337.916 314.836 336.142 314.739 334.271 314.739Z" fill="#C6983C"/>
<path d="M318.409 315.226C439.378 675.672 480.161 731.215 324.122 329.888C324.91 332.024 325.698 333.966 326.585 336.2C323.827 329.014 321.167 322.217 318.409 315.226Z" fill="#C6983C"/>
<path d="M318.505 315.226C479.962 725.389 477.893 668.875 325.795 331.248C324.022 327.266 322.347 323.576 320.574 319.595C319.884 318.139 319.195 316.682 318.505 315.226Z" fill="#C6983C"/>
<path d="M318.71 315.03C510.902 641.588 563.998 688.585 330.826 333.48C326.689 327.168 322.847 321.342 318.808 315.322C318.808 315.224 318.71 315.127 318.71 315.03Z" fill="#C6983C"/>
<path d="M319.298 313.866C326.884 313.477 334.272 313.089 342.251 312.603C334.272 312.992 326.884 313.38 319.298 313.866C319.298 313.768 319.298 313.768 319.298 313.866C319.298 313.768 319.2 313.768 319.2 313.768C324.125 313.283 328.854 312.7 333.878 312.215C329.149 312.7 324.224 313.186 319.397 313.671C319.397 313.671 319.397 313.671 319.495 313.671C319.495 313.671 319.495 313.671 319.397 313.671C326.194 312.603 332.696 311.535 339.69 310.467C332.597 311.535 326.096 312.603 319.2 313.574H319.298C319.298 313.574 319.2 313.574 319.101 313.574C323.436 312.603 327.77 311.729 332.203 310.758C328.066 311.632 323.731 312.506 319.594 313.38C319.495 313.38 319.397 313.38 319.298 313.477H319.2C326.588 311.535 333.681 309.593 341.364 307.554C333.779 309.593 326.588 311.438 319.298 313.38C319.2 313.38 319.2 313.38 319.101 313.38C325.209 311.438 331.218 309.496 337.523 307.457C331.218 309.496 325.307 311.341 319.101 313.283C319.101 313.283 319.101 313.283 319.003 313.283C325.406 310.855 331.612 308.525 338.212 306C331.612 308.525 325.307 310.855 318.904 313.283H319.003H318.904C324.815 310.661 330.528 308.136 336.537 305.515C330.528 308.136 324.815 310.661 319.003 313.186C318.904 313.186 318.904 313.283 318.806 313.283C322.254 311.535 325.701 309.787 329.248 308.039C325.898 309.69 322.352 311.438 319.003 313.186C319.003 313.186 319.003 313.186 319.101 313.186C319.101 313.186 319.003 313.186 319.003 313.283C324.618 310.079 330.036 306.971 335.749 303.67C330.036 306.971 324.618 309.981 319.003 313.186C318.904 313.186 318.904 313.283 318.806 313.283C321.663 311.438 324.519 309.593 327.376 307.748C324.618 309.496 321.663 311.341 318.904 313.186C318.904 313.186 318.904 313.186 319.003 313.186C319.003 313.186 319.003 313.186 318.904 313.186C324.125 309.399 329.149 305.806 334.469 301.922C329.051 305.806 324.027 309.399 318.806 313.186L318.904 313.089L318.806 313.186C324.716 308.428 330.43 303.767 336.636 298.912C333.385 301.533 330.331 303.961 327.081 306.583C324.421 308.719 321.663 310.952 318.904 313.089C318.806 313.089 318.806 313.186 318.707 313.186C323.534 308.913 328.164 304.738 333.09 300.368C329.642 303.475 326.293 306.389 322.845 309.399C321.466 310.564 320.086 311.826 318.707 313.089C323.534 308.331 328.263 303.67 333.287 298.717C328.263 303.67 323.534 308.234 318.707 313.089C318.707 313.089 318.707 313.089 318.806 312.992L318.707 313.089C323.042 308.331 327.179 303.67 331.711 298.815C327.278 303.67 323.042 308.234 318.707 312.992C318.707 312.992 318.707 312.992 318.707 312.894C318.707 312.894 318.707 312.992 318.609 312.992C323.436 307.068 327.967 301.436 332.991 295.319C332.597 295.804 332.203 296.29 331.809 296.775C327.573 301.922 323.042 307.457 318.707 312.797C318.609 312.895 318.609 312.992 318.51 312.992C320.382 310.467 322.155 307.942 324.027 305.418C322.254 307.845 320.382 310.37 318.51 312.894C318.51 312.797 318.609 312.797 318.609 312.7C318.51 312.797 318.51 312.797 318.412 312.894C320.283 310.079 322.057 307.263 323.928 304.447C322.155 307.165 320.185 310.079 318.412 312.797C321.663 307.263 324.716 301.922 328.066 296.29C324.716 302.019 321.564 307.36 318.313 312.894C318.313 312.797 318.412 312.797 318.412 312.7C318.412 312.797 318.313 312.797 318.313 312.894C319.988 309.593 321.663 306.389 323.337 302.99C321.663 306.097 319.988 309.496 318.313 312.7C318.313 312.7 318.313 312.603 318.412 312.603C318.412 312.7 318.313 312.797 318.313 312.894C320.382 308.234 322.451 303.67 324.519 298.912C322.451 303.378 320.283 308.136 318.215 312.7C318.215 312.7 318.215 312.7 318.215 312.603C318.215 312.7 318.116 312.7 318.116 312.797C319.889 308.234 321.564 303.767 323.436 299.106C321.761 303.476 319.889 308.234 318.116 312.7V312.797C319.988 306.971 321.86 301.339 323.83 295.416C322.254 300.174 320.579 305.126 319.003 309.981C318.707 310.855 318.412 311.826 318.116 312.7C318.116 312.797 318.116 312.797 318.018 312.894C319.101 308.816 320.185 304.738 321.367 300.562C320.283 304.544 319.101 308.719 318.018 312.7V312.797V315.322C318.018 315.322 318.018 315.322 318.018 315.419C318.018 315.419 318.018 315.419 318.018 315.322C319.2 319.789 320.48 324.547 321.761 328.916C320.48 324.256 319.298 319.789 318.116 315.128C318.116 315.225 318.116 315.225 318.215 315.322C318.215 315.322 318.215 315.322 318.215 315.225C319.791 319.983 321.466 325.032 323.042 329.693C321.367 324.741 319.889 319.983 318.313 315.128C318.313 315.225 318.412 315.225 318.412 315.322V315.225C320.283 320.08 322.352 325.227 324.125 329.985C322.155 324.838 320.283 319.983 318.313 315.031C318.313 315.128 318.412 315.128 318.412 315.225C318.412 315.225 318.412 315.225 318.412 315.128C319.101 316.584 319.791 318.138 320.48 319.595C322.254 323.479 324.027 327.46 325.701 331.247C325.898 331.635 326.095 332.024 326.292 332.509C323.633 326.489 321.072 320.857 318.412 315.031C318.412 315.031 318.412 315.031 318.412 315.128C318.412 315.128 318.412 315.128 318.412 315.031C321.564 321.051 324.618 326.877 327.77 333.189C324.519 326.974 321.564 321.051 318.412 315.031C321.663 320.566 324.815 325.906 328.066 331.538C324.716 325.809 321.564 320.469 318.412 314.934L318.51 315.031C318.609 315.128 318.609 315.225 318.707 315.225C322.746 321.342 326.785 327.557 330.725 333.383C330.824 333.577 330.922 333.675 331.021 333.869C326.687 327.266 322.648 321.148 318.51 314.837L318.609 314.934C318.609 314.934 318.609 314.837 318.51 314.837C322.254 319.983 325.997 324.935 329.839 330.276C325.997 325.032 322.352 319.983 318.609 314.837C318.609 314.837 318.609 314.837 318.707 314.934C318.707 314.934 318.707 314.934 318.707 314.837C322.648 319.692 326.785 324.644 330.627 329.402C330.922 329.79 331.316 330.179 331.612 330.567C327.081 325.032 322.943 319.983 318.609 314.642L318.707 314.739C318.707 314.739 318.707 314.739 318.707 314.642C323.042 319.303 327.278 323.964 331.711 328.819C327.278 323.964 323.14 319.4 318.806 314.642L318.904 314.739C318.904 314.739 318.904 314.739 318.904 314.642C324.322 319.983 329.543 325.032 335.158 330.567C329.543 325.032 324.322 319.886 319.003 314.545L319.101 314.642C319.101 314.642 319.101 314.642 319.003 314.642C323.731 318.915 328.361 322.993 333.287 327.363C328.361 322.993 323.731 318.818 318.904 314.545C318.904 314.545 318.904 314.545 319.003 314.545C319.003 314.545 319.003 314.545 318.904 314.448C324.224 318.721 329.445 322.896 334.961 327.266C329.445 322.799 324.224 318.721 318.904 314.448C318.904 314.448 318.904 314.448 319.003 314.448C319.495 314.837 320.086 315.225 320.579 315.613C325.307 319.012 329.839 322.216 334.666 325.712C329.248 321.828 324.224 318.235 319.003 314.448C319.101 314.448 319.101 314.545 319.2 314.545L319.101 314.448C325.504 318.526 331.711 322.508 338.409 326.78C332.203 322.799 325.701 318.624 319.2 314.545C319.2 314.545 319.2 314.545 319.298 314.545C319.2 314.545 319.2 314.448 319.101 314.448C324.716 317.653 330.134 320.663 335.946 323.964C330.233 320.663 324.815 317.555 319.2 314.448C319.2 314.448 319.101 314.448 319.101 314.351C325.209 317.458 331.218 320.371 337.523 323.576C331.218 320.371 325.307 317.458 319.2 314.351C319.2 314.351 319.2 314.351 319.298 314.351H319.2C319.988 314.642 320.776 315.031 321.466 315.322C326.588 317.555 331.514 319.692 336.735 322.022C330.627 319.303 324.913 316.779 319.003 314.157C319.101 314.157 319.2 314.254 319.2 314.254C319.2 314.254 319.2 314.254 319.101 314.254C326.194 316.973 333.188 319.498 340.576 322.313C333.188 319.498 326.293 316.876 319.2 314.254H319.298C319.2 314.254 319.2 314.254 319.101 314.157C325.209 316.099 331.218 317.944 337.523 319.983C331.316 317.944 325.406 316.099 319.298 314.157C319.2 314.157 319.2 314.157 319.101 314.06C319.101 314.06 319.101 314.06 319.003 314.06C325.603 315.808 332.006 317.458 338.902 319.206C332.105 317.458 325.701 315.71 319.101 313.963H319.003C325.307 315.225 331.514 316.487 338.015 317.847C331.514 316.487 325.406 315.225 319.101 313.866H319.2H319.101C326.687 315.031 333.976 316.099 341.758 317.361C333.976 316.196 326.687 315.031 319.2 313.866C319.101 313.866 319.003 313.866 319.003 313.866C323.534 314.351 327.967 314.739 332.597 315.225C328.263 314.739 323.633 314.254 319.2 313.866C319.298 313.866 319.298 313.866 319.397 313.866C319.298 313.866 319.2 313.866 319.2 313.866C324.224 314.157 329.149 314.351 334.272 314.642C329.445 314.448 324.224 314.157 319.298 313.866C325.8 313.963 332.006 313.866 338.606 313.866C331.908 313.866 325.603 313.866 319.2 313.866C319.2 313.866 319.298 313.866 319.298 313.866Z" fill="#C6983C"/>
<path d="M329.447 308.038C721.81 111.016 654.035 123.543 319.202 313.185C325.999 309.786 332.501 306.485 339.495 302.989C336.047 304.737 332.895 306.388 329.447 308.038Z" fill="#C6983C"/>
<path d="M318.905 312.895C609.705 26.8294 579.167 30.0338 318.905 312.895V312.895Z" fill="#C6983C"/>
<path d="M318.905 312.895C320.284 311.729 321.663 310.467 322.944 309.302C607.636 56.0573 609.409 29.1598 318.905 312.895Z" fill="#C6983C"/>
<path d="M319.103 313.186C654.626 121.408 664.28 94.4131 319.103 313.186V313.186Z" fill="#C6983C"/>
<path d="M318.999 312.893C321.659 310.757 324.417 308.621 327.175 306.388C670.087 31.4891 607.632 58.4837 318.999 312.893Z" fill="#C6983C"/>
<path d="M318.505 315.03C478.484 664.698 504.195 675.768 318.505 315.03V315.03Z" fill="#C6983C"/>
<path d="M318.804 312.701C323.138 307.36 327.374 302.213 331.906 296.679C602.117 -33.957 545.376 7.79724 318.804 312.701Z" fill="#C6983C"/>
<path d="M318.599 312.603C512.564 -20.169 525.469 -83.5772 318.599 312.603V312.603Z" fill="#C6983C"/>
<path d="M318.804 312.798C578.967 27.7038 604.777 -34.0537 318.804 312.798V312.798Z" fill="#C6983C"/>
<path d="M319.202 313.282C675.215 156.558 723.485 112.182 319.202 313.282V313.282Z" fill="#C6983C"/>
<path d="M333.778 312.215C705.947 273.179 719.541 252.302 319.297 313.671C325.7 312.991 331.906 312.409 338.408 311.632C336.832 311.826 335.354 312.02 333.778 312.215Z" fill="#C6983C"/>
<path d="M319.297 313.769C771.456 289.396 707.129 275.122 319.297 313.769V313.769Z" fill="#C6983C"/>
<path d="M338.113 309.592C336.044 309.98 334.172 310.466 332.202 310.854C702.893 233.075 752.936 200.254 319.297 313.573C319.396 313.573 319.494 313.573 319.593 313.476C325.799 312.214 331.808 310.951 338.113 309.592Z" fill="#C6983C"/>
<path d="M319.297 313.671C724.467 250.069 700.332 235.795 319.297 313.671V313.671Z" fill="#C6983C"/>
<path d="M319.202 313.38C701.714 168.211 674.427 158.695 319.202 313.38V313.38Z" fill="#C6983C"/>
<path d="M319.297 313.477C757.467 197.633 691.564 195.982 319.297 313.477V313.477Z" fill="#C6983C"/>
<path d="M319.202 313.38C689.499 194.914 702.305 169.571 319.202 313.38V313.38Z" fill="#C6983C"/>
<path d="M316.733 313.753H316.634C-53.9583 196.646 -79.6693 207.716 316.733 313.753Z" fill="#C6983C"/>
<path d="M316.722 313.849C-80.0746 209.075 -64.0176 232.865 316.722 313.849V313.849Z" fill="#C6983C"/>
<path d="M316.627 313.849C-65.885 234.225 -130.212 243.741 316.627 313.849V313.849Z" fill="#C6983C"/>
<path d="M317.029 313.169C-4.89977 -1.54138 27.2143 55.5551 317.029 313.169V313.169Z" fill="#C6983C"/>
<path d="M315.451 312.198C315.944 312.586 316.535 312.975 317.027 313.363C-1.94642 59.3419 2.28949 87.3076 315.451 312.198Z" fill="#C6983C"/>
<path d="M317.023 313.072C55.6772 27.5897 -3.82254 -2.60934 317.023 313.072V313.072Z" fill="#C6983C"/>
<path d="M317.023 313.267C27.4049 57.7892 -1.55683 57.7892 317.023 313.267V313.267Z" fill="#C6983C"/>
<path d="M305.301 298.507C309.339 303.459 313.181 308.217 317.22 312.975C91.6336 7.6837 59.9135 -1.83236 305.301 298.507Z" fill="#C6983C"/>
<path d="M317.216 313.169C57.9394 -0.958727 57.9394 27.5895 317.216 313.169V313.169Z" fill="#C6983C"/>
<path d="M316.828 313.461C-19.4832 122.946 -48.3464 129.354 316.828 313.461V313.461Z" fill="#C6983C"/>
<path d="M316.831 313.364C0.0251345 87.7942 -62.6269 68.762 316.831 313.364V313.364Z" fill="#C6983C"/>
<path d="M316.724 313.654C-39.9788 158.387 -105.882 153.629 316.724 313.654V313.654Z" fill="#C6983C"/>
<path d="M314.555 312.587C315.343 312.879 316.033 313.267 316.821 313.558C-48.2552 131.005 -37.8132 157.417 314.555 312.587Z" fill="#C6983C"/>
<path d="M316.63 313.656C-106.468 155.087 -54.9472 194.705 316.63 313.656V313.656Z" fill="#C6983C"/>
<path d="M316.824 313.364C310.421 309.285 304.314 305.304 297.713 301.129C-62.043 71.6745 -14.3644 124.013 316.824 313.364Z" fill="#C6983C"/>
<path d="M317.711 309.189C294.758 -90.9724 277.322 -66.8908 317.711 310.84V309.189Z" fill="#C6983C"/>
<path d="M317.711 315.889C317.12 319.676 316.529 323.366 315.938 327.25C316.529 323.657 317.12 319.87 317.711 316.18V315.889Z" fill="#C6983C"/>
<path d="M317.71 311.616V311.033C317.119 305.304 316.429 299.769 315.838 293.943C316.528 299.963 317.119 305.693 317.71 311.616Z" fill="#C6983C"/>
<path d="M317.718 320.355V319.384C317.423 325.599 317.127 331.522 316.733 337.931C317.127 331.911 317.423 326.279 317.718 320.355Z" fill="#C6983C"/>
<path d="M317.718 316.278C316.732 322.687 315.649 328.901 314.664 335.504C315.156 332.688 315.55 330.066 315.944 327.348C253.489 712.846 275.95 692.26 317.718 316.666V316.278Z" fill="#C6983C"/>
<path d="M317.708 317.443C277.221 696.921 293.081 760.135 317.708 319.191V317.443Z" fill="#C6983C"/>
<path d="M317.714 315.5C316.728 319.967 315.842 324.336 314.857 328.9C315.743 324.628 316.728 320.161 317.714 315.791V315.5Z" fill="#C6983C"/>
<path d="M317.71 317.248V316.665C317.119 322.588 316.429 328.317 315.838 334.338C316.429 328.512 317.119 322.977 317.71 317.248Z" fill="#C6983C"/>
<path d="M317.716 315.792C316.436 321.909 315.155 327.832 313.776 334.047C314.17 332.299 314.465 330.551 314.859 328.803C237.431 689.929 252.404 708.379 317.716 315.792Z" fill="#C6983C"/>
<path d="M314.267 290.641C315.449 298.118 316.532 305.207 317.715 312.392V312.004C317.616 311.518 317.518 311.033 317.518 310.644C316.434 304.041 315.35 297.341 314.365 290.932C314.267 290.835 314.267 290.738 314.267 290.641Z" fill="#C6983C"/>
<path d="M317.713 320.744C295.942 738.578 315.053 703.135 317.713 371.237V320.744Z" fill="#C6983C"/>
<path d="M317.51 310.645C317.608 311.13 317.707 311.616 317.707 312.004V311.616C275.939 -63.1044 247.273 -125.736 314.259 290.836C315.441 297.73 316.426 304.042 317.51 310.645Z" fill="#C6983C"/>
<path d="M313.772 294.234C314.954 299.575 316.037 304.527 317.121 309.771C317.318 310.645 317.515 311.616 317.712 312.587V312.49C245.899 -121.658 237.033 -64.4641 314.461 297.633C314.264 296.468 314.067 295.399 313.772 294.234Z" fill="#C6983C"/>
<path d="M316.636 313.947C-130.4 245.101 -70.8999 272.096 316.636 313.947V313.947Z" fill="#C6983C"/>
<path d="M317.712 312.878V312.587C317.515 311.616 317.318 310.742 317.121 309.771C316.234 305.789 315.348 301.517 314.461 297.633C315.643 302.779 316.628 307.732 317.712 312.878Z" fill="#C6983C"/>
<path d="M317.225 312.976C69.1778 -61.1618 88.4856 0.692763 317.225 312.976V312.976Z" fill="#C6983C"/>
<path d="M316.914 292.584C317.21 297.73 317.407 302.489 317.702 307.538V255.102C315.141 -66.5998 297.902 -70.6781 317.21 297.73C317.111 296.08 317.013 294.429 316.914 292.584Z" fill="#C6983C"/>
<path d="M317.716 307.731C317.52 304.527 317.323 301.031 317.225 297.827C317.421 301.517 317.618 304.915 317.716 308.508V307.731Z" fill="#C6983C"/>
<path d="M316.928 315.015C1.00865 541.847 -35.9324 595.739 316.928 315.015V315.015Z" fill="#C6983C"/>
<path d="M311.705 333.464C311.803 333.173 311.902 332.979 312 332.687C196.843 682.841 200.29 738.869 317.714 315.5C317.418 316.374 317.123 317.345 316.827 318.219C315.054 323.268 313.379 328.22 311.705 333.464Z" fill="#C6983C"/>
<path d="M312.303 328.997C170.548 692.841 197.146 674.392 317.623 315.402C315.16 321.714 312.796 327.734 310.235 334.24C310.924 332.492 311.614 330.841 312.303 328.997Z" fill="#C6983C"/>
<path d="M314.37 327.638C200.394 745.181 235.956 687.113 317.719 315.5C315.749 322.783 313.877 329.774 311.809 337.251C312.695 333.95 313.483 330.939 314.37 327.638Z" fill="#C6983C"/>
<path d="M311.313 329.191C159.116 666.429 170.543 687.598 317.519 315.402C314.86 321.131 312.397 326.763 309.639 332.784C310.23 331.521 310.722 330.453 311.313 329.191Z" fill="#C6983C"/>
<path d="M311.796 322.685C89.362 625.063 94.2875 650.504 317.214 315.402C313.471 320.451 309.826 325.404 305.984 330.647C307.955 327.928 309.826 325.404 311.796 322.685Z" fill="#C6983C"/>
<path d="M308.459 320.355C-27.1624 534.953 3.96662 537.769 316.931 315.015C311.218 318.705 305.701 322.2 299.79 326.084C302.746 324.045 305.504 322.2 308.459 320.355Z" fill="#C6983C"/>
<path d="M312.395 325.016C112.421 711.583 158.031 663.42 317.321 315.5C313.873 322.2 310.524 328.609 306.977 335.503C308.947 331.91 310.622 328.609 312.395 325.016Z" fill="#C6983C"/>
<path d="M311.8 323.657C94.1924 653.904 124.336 643.32 317.316 315.306C313.573 320.938 310.027 326.473 306.185 332.299C308.155 329.289 309.928 326.57 311.8 323.657Z" fill="#C6983C"/>
<path d="M317.711 312.781C236.539 -56.5016 212.01 -78.0585 314.066 299.284C313.475 297.244 312.982 295.302 312.49 293.263C314.263 299.963 315.938 306.275 317.711 312.781Z" fill="#C6983C"/>
<path d="M317.615 312.781C211.422 -72.8144 197.434 -51.8401 312.887 298.41C312.493 297.148 312.099 295.983 311.705 294.817C313.675 300.935 315.645 306.761 317.615 312.781Z" fill="#C6983C"/>
<path d="M317.422 312.975C130.55 -47.0823 124.146 -18.534 317.422 312.975V312.975Z" fill="#C6983C"/>
<path d="M303.332 312.587C-70.2162 274.135 -88.933 291.419 316.532 313.947C310.227 313.267 304.021 312.685 297.52 312.005C299.49 312.296 301.361 312.393 303.332 312.587Z" fill="#C6983C"/>
<path d="M316.629 314.141C-74.4537 315.015 -135.53 337.155 316.629 314.141V314.141Z" fill="#C6983C"/>
<path d="M301.656 313.268C-93.564 293.168 -68.1486 313.268 316.629 314.045C309.832 313.657 303.232 313.365 296.139 312.977C298.11 313.171 299.784 313.268 301.656 313.268Z" fill="#C6983C"/>
<path d="M317.51 312.782C196.54 -47.664 155.758 -103.207 311.796 298.12C311.008 295.983 310.22 294.041 309.334 291.808C312.191 298.994 314.85 305.791 317.51 312.782Z" fill="#C6983C"/>
<path d="M317.514 312.781C156.057 -97.3821 158.126 -40.771 310.225 296.759C311.998 300.74 313.673 304.43 315.446 308.411C316.135 309.868 316.825 311.324 317.514 312.781Z" fill="#C6983C"/>
<path d="M317.32 312.976C125.128 -13.5818 72.031 -60.5796 305.203 294.526C309.34 300.838 313.182 306.664 317.221 312.684C317.221 312.781 317.221 312.878 317.32 312.976Z" fill="#C6983C"/>
<path d="M316.733 314.141C309.148 314.53 301.76 314.918 293.781 315.403C301.76 315.015 309.05 314.627 316.733 314.141C316.635 314.238 316.635 314.238 316.733 314.141C316.733 314.238 316.832 314.238 316.832 314.238C311.907 314.724 307.178 315.306 302.154 315.792C306.883 315.306 311.808 314.821 316.635 314.335C316.635 314.335 316.635 314.335 316.536 314.335C316.536 314.335 316.536 314.335 316.635 314.335C309.838 315.403 303.336 316.472 296.342 317.54C303.435 316.472 309.936 315.403 316.832 314.432H316.733C316.733 314.432 316.832 314.432 316.931 314.432C312.596 315.403 308.262 316.277 303.829 317.248C307.966 316.375 312.301 315.501 316.438 314.627C316.536 314.627 316.635 314.627 316.733 314.53H316.832C309.444 316.472 302.351 318.414 294.667 320.453C302.253 318.414 309.444 316.569 316.733 314.627C316.832 314.627 316.832 314.627 316.931 314.627C310.823 316.569 304.814 318.511 298.509 320.55C304.814 318.511 310.724 316.666 316.931 314.724C316.931 314.724 316.93 314.724 317.029 314.724C310.626 317.151 304.42 319.482 297.82 322.006C304.42 319.482 310.724 317.151 317.127 314.724H317.029H317.127C311.217 317.346 305.503 319.87 299.494 322.492C305.503 319.87 311.217 317.346 317.029 314.821C317.128 314.821 317.128 314.724 317.226 314.724C313.778 316.472 310.33 318.219 306.784 319.967C310.133 318.317 313.68 316.569 317.029 314.821C317.029 314.821 317.029 314.821 316.931 314.821C316.931 314.821 317.029 314.821 317.029 314.724C311.414 317.928 305.996 321.035 300.282 324.337C305.996 321.035 311.414 318.025 317.029 314.821C317.128 314.821 317.128 314.724 317.226 314.724C314.369 316.569 311.512 318.414 308.656 320.259C311.414 318.511 314.369 316.666 317.127 314.821C317.127 314.821 317.128 314.821 317.029 314.821C317.029 314.821 317.029 314.821 317.127 314.821C311.906 318.608 306.883 322.201 301.563 326.085C306.981 322.201 312.005 318.608 317.226 314.821L317.127 314.918L317.226 314.821C311.315 319.579 305.602 324.24 299.396 329.095C302.647 326.473 305.7 324.046 308.951 321.424C311.611 319.288 314.369 317.054 317.127 314.918C317.226 314.918 317.226 314.821 317.325 314.821C312.498 319.093 307.868 323.269 302.942 327.638C306.39 324.531 309.739 321.618 313.187 318.608C314.566 317.443 315.945 316.18 317.325 314.918C312.498 319.676 307.769 324.337 302.745 329.289C307.769 324.337 312.498 319.773 317.325 314.918C317.325 314.918 317.325 314.918 317.226 315.015L317.325 314.918C312.99 319.676 308.853 324.337 304.321 329.192C308.754 324.337 312.99 319.773 317.325 315.015C317.325 315.015 317.325 315.015 317.325 315.112C317.325 315.112 317.325 315.015 317.423 315.015C312.596 320.938 308.065 326.57 303.041 332.688C303.435 332.202 303.829 331.717 304.223 331.231C308.459 326.085 312.99 320.55 317.325 315.209C317.423 315.112 317.423 315.015 317.522 315.015C315.65 317.54 313.877 320.064 312.005 322.589C313.778 320.162 315.65 317.637 317.522 315.112C317.522 315.209 317.423 315.209 317.423 315.306C317.522 315.209 317.522 315.209 317.62 315.112C315.748 317.928 313.975 320.744 312.104 323.56C313.877 320.841 315.847 317.928 317.62 315.209C314.369 320.744 311.315 326.085 307.966 331.717C311.315 325.988 314.468 320.647 317.719 315.112C317.719 315.209 317.62 315.209 317.62 315.306C317.62 315.209 317.719 315.209 317.719 315.112C316.044 318.414 314.369 321.618 312.695 325.017C314.369 321.909 316.044 318.511 317.719 315.306C317.719 315.306 317.719 315.403 317.62 315.403C317.62 315.306 317.719 315.209 317.719 315.112C315.65 319.773 313.581 324.337 311.512 329.095C313.581 324.628 315.748 319.87 317.817 315.306C317.817 315.306 317.817 315.306 317.817 315.403C317.817 315.306 317.916 315.306 317.916 315.209C316.142 319.773 314.468 324.24 312.596 328.901C314.271 324.531 316.142 319.773 317.916 315.306V315.209C316.044 321.035 314.172 326.667 312.202 332.591C313.778 327.833 315.453 322.88 317.029 318.025C317.325 317.151 317.62 316.18 317.916 315.306C317.916 315.209 317.916 315.209 318.014 315.112C316.93 319.19 315.847 323.269 314.665 327.444C315.748 323.463 316.93 319.288 318.014 315.306V315.209V312.685C318.014 312.685 318.014 312.685 318.014 312.587C318.014 312.587 318.014 312.587 318.014 312.685C316.832 308.218 315.551 303.46 314.271 299.09C315.551 303.751 316.733 308.218 317.916 312.879C317.916 312.782 317.916 312.782 317.817 312.685C317.817 312.685 317.817 312.685 317.817 312.782C316.241 308.024 314.566 302.974 312.99 298.313C314.665 303.266 316.142 308.024 317.719 312.879C317.719 312.782 317.62 312.782 317.62 312.685V312.782C315.748 307.927 313.68 302.78 311.907 298.022C313.877 303.168 315.748 308.024 317.719 312.976C317.719 312.879 317.62 312.879 317.62 312.782C317.62 312.782 317.62 312.782 317.62 312.879C316.931 311.422 316.241 309.869 315.551 308.412C313.778 304.528 312.005 300.547 310.33 296.76C310.133 296.371 309.936 295.983 309.739 295.497C312.399 301.518 314.96 307.15 317.62 312.976C317.62 312.976 317.62 312.976 317.62 312.879C317.62 312.879 317.62 312.879 317.62 312.976C314.468 306.956 311.414 301.129 308.262 294.818C311.512 301.032 314.468 306.956 317.62 312.976C314.369 307.441 311.217 302.1 307.966 296.468C311.315 302.197 314.468 307.538 317.62 313.073L317.522 312.976C317.423 312.879 317.423 312.782 317.325 312.782C313.286 306.664 309.247 300.45 305.306 294.623C305.208 294.429 305.109 294.332 305.011 294.138C309.345 300.741 313.384 306.858 317.522 313.17L317.423 313.073C317.423 313.073 317.423 313.17 317.522 313.17C313.778 308.024 310.035 303.071 306.193 297.731C310.035 302.974 313.68 308.024 317.423 313.17C317.423 313.17 317.423 313.17 317.325 313.073C317.325 313.073 317.325 313.073 317.325 313.17C313.384 308.315 309.247 303.363 305.405 298.605C305.109 298.216 304.715 297.828 304.42 297.439C308.951 302.974 313.089 308.024 317.423 313.364L317.325 313.267C317.325 313.267 317.325 313.267 317.325 313.364C312.99 308.703 308.754 304.042 304.321 299.187C308.754 304.042 312.892 308.606 317.226 313.364L317.127 313.267C317.127 313.267 317.127 313.267 317.127 313.364C311.709 308.024 306.488 302.974 300.873 297.439C306.488 302.974 311.709 308.121 317.029 313.461L316.931 313.364C316.931 313.364 316.93 313.364 317.029 313.364C312.301 309.092 307.671 305.013 302.745 300.644C307.671 305.013 312.301 309.189 317.127 313.461C317.127 313.461 317.128 313.461 317.029 313.461C317.029 313.461 317.029 313.461 317.127 313.559C311.808 309.286 306.587 305.111 301.07 300.741C306.587 305.208 311.808 309.286 317.127 313.559C317.127 313.559 317.128 313.559 317.029 313.559C316.536 313.17 315.945 312.782 315.453 312.393C310.724 308.995 306.193 305.79 301.366 302.295C306.784 306.179 311.808 309.772 317.029 313.559C316.93 313.559 316.93 313.461 316.832 313.461L316.931 313.559C310.527 309.48 304.321 305.499 297.623 301.226C303.829 305.208 310.33 309.383 316.832 313.461C316.832 313.461 316.832 313.461 316.733 313.461C316.832 313.461 316.832 313.559 316.931 313.559C311.315 310.354 305.897 307.344 300.085 304.042C305.799 307.344 311.217 310.451 316.832 313.559C316.832 313.559 316.931 313.559 316.931 313.656C310.823 310.548 304.814 307.635 298.509 304.431C304.814 307.635 310.724 310.548 316.832 313.656C316.832 313.656 316.832 313.656 316.733 313.656H316.832C316.044 313.364 315.256 312.976 314.566 312.685C309.444 310.451 304.518 308.315 299.297 305.985C305.405 308.703 311.118 311.228 317.029 313.85C316.93 313.85 316.832 313.753 316.832 313.753C316.832 313.753 316.832 313.753 316.931 313.753C309.838 311.034 302.844 308.509 295.455 305.693C302.844 308.509 309.739 311.131 316.832 313.753H316.733C316.832 313.753 316.832 313.753 316.931 313.85C310.823 311.908 304.814 310.063 298.509 308.024C304.715 310.063 310.626 311.908 316.733 313.85C316.832 313.85 316.832 313.85 316.931 313.947C316.931 313.947 316.93 313.947 317.029 313.947C310.429 312.199 304.026 310.548 297.13 308.8C303.927 310.548 310.33 312.296 316.931 314.044H317.029C310.724 312.782 304.518 311.519 298.017 310.16C304.518 311.519 310.626 312.782 316.931 314.141H316.832H316.931C309.345 312.976 302.056 311.908 294.273 310.645C302.056 311.811 309.345 312.976 316.832 314.141C316.93 314.141 317.029 314.141 317.029 314.141C312.498 313.656 308.065 313.267 303.435 312.782C307.769 313.267 312.399 313.753 316.832 314.141C316.733 314.141 316.733 314.141 316.635 314.141C316.733 314.141 316.832 314.141 316.832 314.141C311.808 313.85 306.883 313.656 301.76 313.364C306.587 313.559 311.71 313.85 316.733 314.141C310.232 314.044 304.026 314.141 297.426 314.141C304.124 314.141 310.429 314.141 316.832 314.141H316.733Z" fill="#C6983C"/>
<path d="M306.574 319.967C-85.7892 516.989 -18.0147 504.463 316.819 314.821C310.022 318.219 303.52 321.521 296.526 325.016C299.974 323.269 303.126 321.618 306.574 319.967Z" fill="#C6983C"/>
<path d="M317.115 315.111C26.2166 601.177 56.7546 597.972 317.115 315.111V315.111Z" fill="#C6983C"/>
<path d="M317.029 315.111C315.65 316.277 314.271 317.539 312.99 318.704C28.2975 571.949 26.5244 598.846 317.029 315.111Z" fill="#C6983C"/>
<path d="M316.927 314.821C-18.6947 506.599 -28.3486 533.594 316.927 314.821V314.821Z" fill="#C6983C"/>
<path d="M316.926 315.111C314.266 317.248 311.508 319.384 308.749 321.617C-34.162 596.516 28.3915 569.521 316.926 315.111Z" fill="#C6983C"/>
<path d="M317.511 312.975C157.531 -36.6925 131.82 -47.7622 317.511 312.975V312.975Z" fill="#C6983C"/>
<path d="M317.121 315.306C312.786 320.647 308.55 325.793 304.019 331.328C33.906 661.964 90.6474 620.209 317.121 315.306Z" fill="#C6983C"/>
<path d="M317.419 315.402C123.356 648.174 110.55 711.582 317.419 315.402V315.402Z" fill="#C6983C"/>
<path d="M317.124 315.209C56.9607 600.304 31.2497 662.061 317.124 315.209V315.209Z" fill="#C6983C"/>
<path d="M316.728 314.723C-39.2846 471.447 -87.4557 515.823 316.728 314.723V314.723Z" fill="#C6983C"/>
<path d="M302.256 315.791C-69.9124 354.826 -83.5067 375.703 316.737 314.334C310.334 315.014 304.128 315.596 297.626 316.373C299.104 316.179 300.582 315.985 302.256 315.791Z" fill="#C6983C"/>
<path d="M316.632 314.237C-135.428 338.61 -71.1016 352.884 316.632 314.237V314.237Z" fill="#C6983C"/>
<path d="M297.805 318.413C299.874 318.024 301.746 317.539 303.716 317.151C-66.9751 394.93 -117.018 427.751 316.621 314.432C316.522 314.432 316.424 314.432 316.325 314.529C310.218 315.791 304.208 317.053 297.805 318.413Z" fill="#C6983C"/>
<path d="M316.723 314.334C-88.4466 377.936 -64.3118 392.211 316.723 314.334V314.334Z" fill="#C6983C"/>
<path d="M316.823 314.626C-65.7877 459.795 -38.4021 469.311 316.823 314.626V314.626Z" fill="#C6983C"/>
<path d="M316.724 314.528C-121.545 430.372 -55.5436 432.023 316.724 314.528V314.528Z" fill="#C6983C"/>
<path d="M316.73 314.626C-53.4688 433.091 -66.3735 458.435 316.73 314.626V314.626Z" fill="#C6983C"/>
</svg>
